# xmcd
#
# Track frame offsets:
#	150
#	18320
#	35047
#	51445
#	65222
#	81452
#	99004
#	116060
#	134830
#	150842
#	167214
#	186858
#	202359
#	216838
#	234430
#
# Disc length: 3317 seconds
# Revision: 0
# Processed by: cddbd v1.5.2PL0 Copyright (c) Steve Scherf et al.
# Submitted via: dBpowerAMP V12.0
#
DISCID=e00cf30f
DTITLE=Blake Shelton - Bringing Back The Sunshine (Deluxe Edition)
DYEAR=2014
DGENRE=Country
TTITLE0=Bringing Back The Sunshine
TTITLE1=Neon Light
TTITLE2=Lonely Tonight (Feat. Ashley Monroe)
TTITLE3=Gonna
TTITLE4=A Girl
TTITLE5=Sangria
TTITLE6=Buzzin' (Feat. Rae Lynn)
TTITLE7=Just South Of Heaven
TTITLE8=I Need My Girl
TTITLE9=Good Country Song
TTITLE10=Anyone Else
TTITLE11=Just Gettin' Started
TTITLE12=Messed Up
TTITLE13=I Really Shouldn't Drink Around You
TTITLE14=Pain
EXTD=
EXTT0=
EXTT1=
EXTT2=
EXTT3=
EXTT4=
EXTT5=
EXTT6=
EXTT7=
EXTT8=
EXTT9=
EXTT10=
EXTT11=
EXTT12=
EXTT13=
EXTT14=
PLAYORDER=
